<svg xmlns="http://www.w3.org/2000/svg" xmlns:xlink="http://www.w3.org/1999/xlink" width="340" height="460" viewBox="0 0 340 460">
  <defs>
    <clipPath id="clip-custom_3">
      <rect width="340" height="460"/>
    </clipPath>
  </defs>
  <g id="custom_3" data-name="custom – 3" clip-path="url(#clip-custom_3)">
    <g id="Rectangle_15" data-name="Rectangle 15" transform="translate(27 227)" fill="none" stroke="#000" stroke-linecap="round" stroke-width="6">
      <path d="M5,0H142a5,5,0,0,1,5,5V31a15,15,0,0,1-15,15H15A15,15,0,0,1,0,31V5A5,5,0,0,1,5,0Z" stroke="none"/>
      <path d="M5,3H142a2,2,0,0,1,2,2V31a12,12,0,0,1-12,12H15A12,12,0,0,1,3,31V5A2,2,0,0,1,5,3Z" fill="none"/>
    </g>
    <g id="Rectangle_16" data-name="Rectangle 16" transform="translate(44 240)" stroke="#000" stroke-linecap="round" stroke-width="6">
      <path d="M5,0H108a5,5,0,0,1,5,5V6A15,15,0,0,1,98,21H15A15,15,0,0,1,0,6V5A5,5,0,0,1,5,0Z" stroke="none"/>
      <path d="M5,3H108a2,2,0,0,1,2,2V6A12,12,0,0,1,98,18H15A12,12,0,0,1,3,6V5A2,2,0,0,1,5,3Z" fill="none"/>
    </g>
    <path id="Path_10" data-name="Path 10" d="M851.547,230l122.216-80.038h109" transform="translate(-820)" fill="none" stroke="#000" stroke-linecap="round" stroke-linejoin="round" stroke-width="6"/>
    <path id="Path_11" data-name="Path 11" d="M851.547,173.779l36.368-23.817" transform="translate(-684 56.221)" fill="none" stroke="#000" stroke-linecap="round" stroke-width="6"/>
    <path id="Path_12" data-name="Path 12" d="M851.547,174.507l34.442-24.218" transform="translate(-685 92.493)" fill="none" stroke="#000" stroke-linecap="round" stroke-width="6"/>
    <ellipse id="Ellipse_17" data-name="Ellipse 17" cx="50.5" cy="89" rx="50.5" ry="89" transform="matrix(0.998, 0.07, -0.07, 0.998, 216.331, 143.694)"/>
    <path id="Path_13" data-name="Path 13" d="M1020.675,245.464l-.654,6.064-.916,5.148-.709,3.561-.938,4.035-.774,2.983-.785,2.857-1.091,3.752-1.232,3.9-1.423,3.817-1.843,4.368-1.778,3.915-1.51,3.026-1.745,3.141-2.776,4.488-2.781,4-3.163,3.992-3.544,3.817-2.776,2.568-3.25,2.53-3.163,2.072-3.7,1.93-2.726,1.112-2.737.856-1.919.393-2.956.447-2.421.131-2.268-.131-2.312-.262-3.141-.693-3.381-1.178-2.4-1.1-1.7-.938-1.549-.982-1.669-1.2-1.57-1.178-1.418-1.221-1.44-1.309-1.451-1.483-1.091-1.287-1.134-1.287-1.336-1.739-1.309-1.723-1.167-1.647-1.374-2.181-1.042-1.723-1.678-3.1-1.124-2.265-1.325-2.886-1.342-3.314-1.074-2.919L927.3,284.3l-.973-3.221-.537-2-.529-2.19-.4-1.594-.7-3.087h55.828Z" transform="translate(-820)" stroke="#000" stroke-width="1"/>
    <g id="Path_14" data-name="Path 14" transform="translate(-826 1)" stroke-linecap="round" stroke-linejoin="bevel">
      <path d="M 1056.386108398438 321.3732299804688 L 1043.979736328125 321.3732299804688 L 1001.161926269531 321.3732299804688 L 978.6875 321.3732299804688 L 1027.3212890625 247.2460174560547 L 1027.393188476563 249.8366851806641 L 1027.394287109375 249.8740844726563 L 1027.396240234375 249.9114379882813 L 1027.551147460938 252.8476257324219 L 1027.55224609375 252.868896484375 L 1027.5537109375 252.89013671875 L 1027.70849609375 255.2003784179688 L 1027.710693359375 255.2323303222656 L 1027.713500976563 255.2642211914063 L 1027.978149414063 258.2552490234375 L 1027.980834960938 258.2858581542969 L 1027.984130859375 258.3163757324219 L 1028.306762695313 261.2719421386719 L 1028.309692382813 261.2991638183594 L 1028.313232421875 261.3263244628906 L 1028.703735351563 264.3851318359375 L 1028.707763671875 264.4164733886719 L 1028.71240234375 264.4477233886719 L 1029.060791015625 266.7837524414063 L 1029.066528320313 266.8222961425781 L 1029.0732421875 266.8606567382813 L 1029.654052734375 270.1646728515625 L 1029.66162109375 270.207275390625 L 1029.670288085938 270.2496643066406 L 1030.115600585938 272.4147033691406 L 1030.477905273438 274.1618347167969 L 1030.482788085938 274.1850891113281 L 1030.487915039063 274.2083129882813 L 1030.849243164063 275.8215942382813 L 1030.855834960938 275.8509826660156 L 1030.863037109375 275.8801879882813 L 1031.308349609375 277.69677734375 L 1031.312622070313 277.7144470214844 L 1031.317138671875 277.7320861816406 L 1031.730102539063 279.3324279785156 L 1031.735107421875 279.3515625 L 1031.740234375 279.37060546875 L 1032.237182617188 281.1968383789063 L 1032.243286132813 281.2191162109375 L 1032.249755859375 281.2413024902344 L 1032.778930664063 283.0740661621094 L 1032.785278320313 283.09619140625 L 1032.7919921875 283.1182250976563 L 1033.369506835938 285.0089416503906 L 1033.380615234375 285.0452575683594 L 1033.392578125 285.0812377929688 L 1033.999145507813 286.9010620117188 L 1034.010864257813 286.936279296875 L 1034.0234375 286.97119140625 L 1034.82373046875 289.1878051757813 L 1034.826293945313 289.1947937011719 L 1034.828857421875 289.2018127441406 L 1035.396728515625 290.7505493164063 L 1035.413452148438 290.7960510253906 L 1035.431518554688 290.8410034179688 L 1036.31884765625 293.038330078125 L 1036.33837890625 293.0869140625 L 1036.359741210938 293.1347961425781 L 1037.56005859375 295.8321838378906 L 1037.568237304688 295.8504943847656 L 1037.576538085938 295.8687133789063 L 1038.589721679688 298.0660400390625 L 1038.615234375 298.1213989257813 L 1038.64306640625 298.1756286621094 L 1039.804565429688 300.4471435546875 L 1039.820556640625 300.4786071777344 L 1039.83740234375 300.5096435546875 L 1040.766723632813 302.2261657714844 L 1040.786743164063 302.26318359375 L 1040.807861328125 302.2995910644531 L 1041.904907226563 304.1968383789063 L 1041.94091796875 304.2591552734375 L 1041.979858398438 304.3196411132813 L 1043.638305664063 306.8944396972656 L 1043.666870117188 306.9387512207031 L 1043.696899414063 306.9820556640625 L 1044.961669921875 308.8018493652344 L 1044.986328125 308.8373107910156 L 1045.012084960938 308.8720703125 L 1046.334838867188 310.6630249023438 L 1046.692749023438 311.3435668945313 L 1046.842529296875 311.6283569335938 L 1047.04931640625 311.8749084472656 L 1047.70361328125 312.655029296875 L 1047.759887695313 312.7222290039063 L 1047.820068359375 312.7859802246094 L 1048.406005859375 313.406982421875 L 1048.892333984375 313.9860229492188 L 1048.94140625 314.0444946289063 L 1048.993530273438 314.1004028320313 L 1049.729248046875 314.8909301757813 L 1049.74365234375 314.9065246582031 L 1049.758422851563 314.9219055175781 L 1050.315185546875 315.50341796875 L 1050.994384765625 316.246337890625 L 1051.870849609375 317.20751953125 L 1051.968872070313 317.3150634765625 L 1052.076782226563 317.41259765625 L 1052.83544921875 318.0977783203125 L 1053.567260742188 318.9186401367188 L 1053.711303710938 319.0801086425781 L 1053.876953125 319.2192687988281 L 1055.181396484375 320.3150329589844 L 1056.386108398438 321.3732299804688 Z" stroke="none"/>
      <path d="M 1024.815063476563 256.534912109375 L 984.2437744140625 318.3732299804688 L 1001.161865234375 318.3732299804688 L 1043.979736328125 318.3732299804688 L 1048.873779296875 318.3732299804688 L 1048.7802734375 318.2705993652344 L 1047.533203125 316.9347839355469 L 1046.283447265625 315.5288391113281 L 1045.404907226563 314.582763671875 L 1044.750610351563 313.8026123046875 L 1044.057373046875 312.6290893554688 L 1042.498291015625 310.5139465332031 L 1041.1162109375 308.5189514160156 L 1039.307739257813 305.6985168457031 L 1038.128662109375 303.6545104980469 L 1037.133544921875 301.81298828125 L 1035.865478515625 299.3222045898438 L 1034.819091796875 297.0518493652344 L 1033.536987304688 294.1615600585938 L 1032.580078125 291.7832641601563 L 1032.002075195313 290.2066040039063 L 1031.153076171875 287.8496704101563 L 1030.500366210938 285.8853149414063 L 1029.896606445313 283.9063110351563 L 1029.342529296875 281.9845275878906 L 1028.825317382813 280.08203125 L 1028.39453125 278.4110412597656 L 1027.921875 276.4772644042969 L 1027.540405273438 274.77099609375 L 1027.177124023438 273.0191040039063 L 1026.699462890625 270.68408203125 L 1026.093505859375 267.2262573242188 L 1025.727905273438 264.7650451660156 L 1025.324462890625 261.5975341796875 L 1024.98974609375 258.5196228027344 L 1024.815063476563 256.534912109375 M 1030.3017578125 241.7611694335938 L 1030.3017578125 242.6387939453125 L 1030.3017578125 243.8294067382813 L 1030.3017578125 246.5010375976563 L 1030.39208984375 249.75341796875 L 1030.546997070313 252.6895751953125 L 1030.701782226563 254.9998168945313 L 1030.966430664063 257.9908447265625 L 1031.2890625 260.9464111328125 L 1031.679565429688 264.0052185058594 L 1032.027954101563 266.3412475585938 L 1032.608764648438 269.645263671875 L 1033.054077148438 271.810302734375 L 1033.415405273438 273.5526428222656 L 1033.776733398438 275.1659240722656 L 1034.222045898438 276.9825134277344 L 1034.635009765625 278.5828857421875 L 1035.131958007813 280.4091186523438 L 1035.6611328125 282.2418518066406 L 1036.238647460938 284.1325988769531 L 1036.84521484375 285.9524230957031 L 1037.6455078125 288.1690368652344 L 1038.21337890625 289.7178039550781 L 1039.1005859375 291.9151306152344 L 1040.300903320313 294.6125183105469 L 1041.314086914063 296.8098449707031 L 1042.4755859375 299.0813598632813 L 1043.404907226563 300.7978820800781 L 1044.501953125 302.6951293945313 L 1046.160400390625 305.2699279785156 L 1047.425170898438 307.0897216796875 L 1048.883666992188 309.0643920898438 L 1049.347900390625 309.9470825195313 L 1050.002197265625 310.7272338867188 L 1050.647583007813 311.4112854003906 L 1051.189575195313 312.0565795898438 L 1051.92529296875 312.8471069335938 L 1052.506103515625 313.4537048339844 L 1053.208618164063 314.22216796875 L 1054.087646484375 315.1862487792969 L 1054.966674804688 315.9801940917969 L 1055.806518554688 316.9221496582031 L 1057.136352539063 318.0392150878906 L 1058.3779296875 319.1297607421875 L 1059.013061523438 319.6756896972656 L 1059.45166015625 320.0526123046875 L 1060.273803710938 320.7405090332031 L 1061.045654296875 321.41162109375 L 1061.896240234375 322.1024475097656 L 1063.292114257813 323.2584533691406 L 1064.680786132813 324.3732299804688 L 1061.43505859375 324.3732299804688 L 1043.979736328125 324.3732299804688 C 1043.979736328125 324.3732299804688 1017.065673828125 324.3732299804688 1001.161865234375 324.3732299804688 C 985.2581787109375 324.3732299804688 973.1312255859375 324.3732299804688 973.1312255859375 324.3732299804688 L 1025.974853515625 243.8294067382813 L 1030.3017578125 241.7611694335938 Z" stroke="none"/>
    </g>
    <path id="Path_15" data-name="Path 15" d="M968.125,324.484l-5.388-1.187" transform="translate(-836.628 50.971) rotate(-3)" fill="none" stroke="#000" stroke-linecap="round" stroke-width="2"/>
    <path id="Path_17" data-name="Path 17" d="M947.358,167.819l-34.073,22.162H842.158l33.2-22.162Z" transform="translate(-725 -3)" fill="none" stroke="#000" stroke-linecap="round" stroke-linejoin="round" stroke-width="3"/>
    <path id="Path_18" data-name="Path 18" d="M914.989,167.819,891.4,182.108H842.158l22.985-14.29Z" transform="translate(-709 1)" stroke="#000" stroke-linecap="round" stroke-linejoin="round" stroke-width="3"/>
  </g>
</svg>
