<svg xmlns="http://www.w3.org/2000/svg" xmlns:xlink="http://www.w3.org/1999/xlink" width="340" height="460" viewBox="0 0 340 460">
  <defs>
    <clipPath id="clip-custom_2">
      <rect width="340" height="460"/>
    </clipPath>
  </defs>
  <g id="custom_2" data-name="custom – 2" clip-path="url(#clip-custom_2)">
    <g id="Board">
      <g id="Rectangle_9" data-name="Rectangle 9" transform="translate(33 89.884)" fill="none" stroke="#000" stroke-width="20">
        <rect width="274.641" height="320.721" rx="40" stroke="none"/>
        <rect x="10" y="10" width="254.641" height="300.721" rx="30" fill="none"/>
      </g>
      <line id="Line_1" data-name="Line 1" y2="235.933" transform="translate(111.798 162.23)" fill="none" stroke="#000" stroke-width="10"/>
      <line id="Line_2" data-name="Line 2" x2="259.895" transform="translate(38.99 162.23)" fill="none" stroke="#000" stroke-width="10"/>
      <line id="Line_3" data-name="Line 3" y1="235.933" transform="translate(202.116 157.622)" fill="none" stroke="#000" stroke-width="5"/>
      <line id="Line_4" data-name="Line 4" x2="253.443" transform="translate(38.99 201.859)" fill="none" stroke="#000" stroke-width="5"/>
      <line id="Line_5" data-name="Line 5" x2="253.443" transform="translate(43.599 360.377)" fill="none" stroke="#000" stroke-width="5"/>
      <line id="Line_6" data-name="Line 6" x2="253.443" transform="translate(43.599 320.747)" fill="none" stroke="#000" stroke-width="5"/>
      <line id="Line_7" data-name="Line 7" x2="253.443" transform="translate(43.599 281.118)" fill="none" stroke="#000" stroke-width="5"/>
      <line id="Line_8" data-name="Line 8" x2="253.443" transform="translate(38.99 241.489)" fill="none" stroke="#000" stroke-width="5"/>
    </g>
    <g id="Pencil">
      <g id="Rectangle_10" data-name="Rectangle 10" transform="translate(103.964 65)" fill="none" stroke="#000" stroke-width="6">
        <rect width="132.712" height="24.884" stroke="none"/>
        <rect x="-3" y="-3" width="138.712" height="30.884" fill="none"/>
      </g>
      <g id="Rectangle_11" data-name="Rectangle 11" transform="translate(236.676 72.373)" fill="none" stroke="#000" stroke-width="3">
        <rect width="31.335" height="15.667" rx="7.834" stroke="none"/>
        <rect x="1.5" y="1.5" width="28.335" height="12.667" rx="6.334" fill="none"/>
      </g>
      <g id="Rectangle_12" data-name="Rectangle 12" transform="translate(64.335 72.373)" fill="none" stroke="#000" stroke-width="3">
        <rect width="39.629" height="15.667" rx="6" stroke="none"/>
        <rect x="1.5" y="1.5" width="36.629" height="12.667" rx="4.5" fill="none"/>
      </g>
      <g id="Rectangle_13" data-name="Rectangle 13" transform="translate(64.335 72.373)" fill="none" stroke="#000" stroke-width="3">
        <rect width="24.884" height="15.667" rx="7.834" stroke="none"/>
        <rect x="1.5" y="1.5" width="21.884" height="12.667" rx="6.334" fill="none"/>
      </g>
      <g id="Rectangle_14" data-name="Rectangle 14" transform="translate(64.335 72.373)" fill="none" stroke="#000" stroke-width="3">
        <rect width="12.903" height="15.667" rx="6.451" stroke="none"/>
        <rect x="1.5" y="1.5" width="9.903" height="12.667" rx="4.951" fill="none"/>
      </g>
      <path id="Path_8" data-name="Path 8" d="M680.618,38.553l21.346,6.215-21.346,6.755,4.053-4.864V41.8Z" transform="translate(-417.567 35.251)" fill="none" stroke="#000" stroke-linejoin="round" stroke-width="3"/>
      <path id="Path_9" data-name="Path 9" d="M693.811,42.5v3.928l7.566-1.891Z" transform="translate(-418.601 34.942)" stroke="#000" stroke-width="1"/>
    </g>
    <g id="X" transform="translate(9.5 -0.5)">
      <line id="Line_9" data-name="Line 9" x2="21" y2="21" transform="translate(139.5 173.5)" fill="none" stroke="#000" stroke-width="4"/>
      <line id="Line_10" data-name="Line 10" y1="21" x2="21" transform="translate(139.5 173.5)" fill="none" stroke="#000" stroke-width="4"/>
    </g>
    <g id="Ellipse_12" data-name="Ellipse 12" transform="translate(233 171)" fill="none" stroke="#000" stroke-width="3">
      <circle cx="12.5" cy="12.5" r="12.5" stroke="none"/>
      <circle cx="12.5" cy="12.5" r="11" fill="none"/>
    </g>
    <g id="Ellipse_13" data-name="Ellipse 13" transform="translate(147 364)" fill="none" stroke="#000" stroke-width="3">
      <circle cx="12.5" cy="12.5" r="12.5" stroke="none"/>
      <circle cx="12.5" cy="12.5" r="11" fill="none"/>
    </g>
    <g id="Ellipse_14" data-name="Ellipse 14" transform="translate(233 328)" fill="none" stroke="#000" stroke-width="3">
      <circle cx="12.5" cy="12.5" r="12.5" stroke="none"/>
      <circle cx="12.5" cy="12.5" r="11" fill="none"/>
    </g>
    <g id="Ellipse_15" data-name="Ellipse 15" transform="translate(147 249)" fill="none" stroke="#000" stroke-width="3">
      <circle cx="12.5" cy="12.5" r="12.5" stroke="none"/>
      <circle cx="12.5" cy="12.5" r="11" fill="none"/>
    </g>
    <g id="Ellipse_16" data-name="Ellipse 16" transform="translate(147 209)" fill="none" stroke="#000" stroke-width="3">
      <circle cx="12.5" cy="12.5" r="12.5" stroke="none"/>
      <circle cx="12.5" cy="12.5" r="11" fill="none"/>
    </g>
    <g id="X-2" data-name="X" transform="translate(95.5 192.5)">
      <line id="Line_9-2" data-name="Line 9" x2="21" y2="21" transform="translate(139.5 173.5)" fill="none" stroke="#000" stroke-width="4"/>
      <line id="Line_10-2" data-name="Line 10" y1="21" x2="21" transform="translate(139.5 173.5)" fill="none" stroke="#000" stroke-width="4"/>
    </g>
    <g id="X-3" data-name="X" transform="translate(9.5 156.5)">
      <line id="Line_9-3" data-name="Line 9" x2="21" y2="21" transform="translate(139.5 173.5)" fill="none" stroke="#000" stroke-width="4"/>
      <line id="Line_10-3" data-name="Line 10" y1="21" x2="21" transform="translate(139.5 173.5)" fill="none" stroke="#000" stroke-width="4"/>
    </g>
    <g id="X-4" data-name="X" transform="translate(95.5 77.5)">
      <line id="Line_9-4" data-name="Line 9" x2="21" y2="21" transform="translate(139.5 173.5)" fill="none" stroke="#000" stroke-width="4"/>
      <line id="Line_10-4" data-name="Line 10" y1="21" x2="21" transform="translate(139.5 173.5)" fill="none" stroke="#000" stroke-width="4"/>
    </g>
    <g id="X-5" data-name="X" transform="translate(95.5 37.5)">
      <line id="Line_9-5" data-name="Line 9" x2="21" y2="21" transform="translate(139.5 173.5)" fill="none" stroke="#000" stroke-width="4"/>
      <line id="Line_10-5" data-name="Line 10" y1="21" x2="21" transform="translate(139.5 173.5)" fill="none" stroke="#000" stroke-width="4"/>
    </g>
    <line id="Line_11" data-name="Line 11" x2="14" transform="translate(151.5 299.5)" fill="none" stroke="#000" stroke-linecap="round" stroke-width="4"/>
    <line id="Line_12" data-name="Line 12" x2="14" transform="translate(237.5 299.5)" fill="none" stroke="#000" stroke-linecap="round" stroke-width="4"/>
    <text id="PRO_FANTASY_LEAGUE" data-name="PRO FANTASY LEAGUE" transform="translate(73 142)" font-size="24" font-family="Cavorting"><tspan x="0" y="0">PRO FANTASY LEAGUE</tspan></text>
    <text id="SCORE" transform="translate(144 85)" font-size="20" font-family="Cavorting"><tspan x="0" y="0">SCORE</tspan></text>
    <text id="_1" data-name="1" transform="translate(76 192)" font-size="24" font-family="Cavorting"><tspan x="0" y="0">1</tspan></text>
    <text id="_6" data-name="6" transform="translate(73 385)" font-size="24" font-family="Cavorting"><tspan x="0" y="0">6</tspan></text>
    <text id="_5" data-name="5" transform="translate(73 349)" font-size="24" font-family="Cavorting"><tspan x="0" y="0">5</tspan></text>
    <text id="_4" data-name="4" transform="translate(74 308)" font-size="24" font-family="Cavorting"><tspan x="0" y="0">4</tspan></text>
    <text id="_3" data-name="3" transform="translate(74 270)" font-size="24" font-family="Cavorting"><tspan x="0" y="0">3</tspan></text>
    <text id="_2" data-name="2" transform="translate(74 230)" font-size="24" font-family="Cavorting"><tspan x="0" y="0">2</tspan></text>
  </g>
</svg>
