<svg xmlns="http://www.w3.org/2000/svg" xmlns:xlink="http://www.w3.org/1999/xlink" width="340" height="460" viewBox="0 0 340 460">
  <defs>
    <clipPath id="clip-path">
      <rect id="Rectangle_17" data-name="Rectangle 17" width="300" height="372" rx="28" transform="translate(20 41)" fill="none" stroke="#707070" stroke-width="1"/>
    </clipPath>
    <clipPath id="clip-path-2">
      <rect id="Rectangle_18" data-name="Rectangle 18" width="274.957" height="372"/>
    </clipPath>
    <clipPath id="clip-forumimg">
      <rect width="340" height="460"/>
    </clipPath>
  </defs>
  <g id="forumimg" clip-path="url(#clip-forumimg)">
    <g id="Mask_Group_1" data-name="Mask Group 1" clip-path="url(#clip-path)">
      <g id="custom_1" data-name="custom – 1" transform="translate(32.522 41)" clip-path="url(#clip-path-2)">
        <circle id="Ellipse_1" data-name="Ellipse 1" cx="51.757" cy="51.757" r="51.757" transform="translate(-35.583 172.252)"/>
        <rect id="Rectangle_1" data-name="Rectangle 1" width="166.591" height="148.8" rx="54.991" transform="translate(-66.313 281.426)"/>
        <rect id="Rectangle_2" data-name="Rectangle 2" width="129.391" height="67.93" rx="16.983" transform="translate(35.583 98.661)"/>
        <ellipse id="Ellipse_2" data-name="Ellipse 2" cx="9.704" cy="9.3" rx="9.704" ry="9.3" transform="translate(50.948 128.583)" fill="#846c5b"/>
        <ellipse id="Ellipse_3" data-name="Ellipse 3" cx="9.704" cy="9.3" rx="9.704" ry="9.3" transform="translate(77.635 128.583)" fill="#846c5b"/>
        <ellipse id="Ellipse_4" data-name="Ellipse 4" cx="9.704" cy="9.3" rx="9.704" ry="9.3" transform="translate(104.322 128.583)" fill="#846c5b"/>
        <ellipse id="Ellipse_5" data-name="Ellipse 5" cx="9.704" cy="9.3" rx="9.704" ry="9.3" transform="translate(131.009 128.583)" fill="#846c5b"/>
        <rect id="Rectangle_3" data-name="Rectangle 3" width="129.391" height="67.93" rx="16.983" transform="translate(87.339 16.174)"/>
        <circle id="Ellipse_6" data-name="Ellipse 6" cx="3.977" cy="3.977" r="3.977" transform="translate(112.409 65.636)" fill="#846c5b"/>
        <rect id="Rectangle_4" data-name="Rectangle 4" width="6.731" height="24.477" rx="3.365" transform="translate(113.021 36.877)" fill="#846c5b"/>
        <circle id="Ellipse_7" data-name="Ellipse 7" cx="3.977" cy="3.977" r="3.977" transform="translate(136.67 53.506)" fill="#846c5b"/>
        <rect id="Rectangle_5" data-name="Rectangle 5" width="6.731" height="24.477" rx="3.365" transform="translate(137.282 24.746)" fill="#846c5b"/>
        <circle id="Ellipse_8" data-name="Ellipse 8" cx="3.977" cy="3.977" r="3.977" transform="translate(160.122 67.254)" fill="#846c5b"/>
        <rect id="Rectangle_6" data-name="Rectangle 6" width="6.731" height="24.477" rx="3.365" transform="translate(160.734 38.494)" fill="#846c5b"/>
        <circle id="Ellipse_9" data-name="Ellipse 9" cx="3.977" cy="3.977" r="3.977" transform="translate(183.574 55.123)" fill="#846c5b"/>
        <rect id="Rectangle_7" data-name="Rectangle 7" width="6.731" height="24.477" rx="3.365" transform="translate(184.186 26.363)" fill="#846c5b"/>
        <circle id="Ellipse_10" data-name="Ellipse 10" cx="51.757" cy="51.757" r="51.757" transform="translate(207.026 128.583)"/>
        <rect id="Rectangle_8" data-name="Rectangle 8" width="166.591" height="192.47" rx="54.991" transform="translate(176.296 237.757)"/>
        <path id="Path_2" data-name="Path 2" d="M56.2,166.591l-18.457,6.314,6.246-8.962Z"/>
        <path id="Path_3" data-name="Path 3" d="M176.3,81.16,209.29,98.725l-8.156-19.448Z"/>
      </g>
    </g>
  </g>
</svg>
